<?xml version="1.0" encoding="UTF-8"?><svg xmlns="http://www.w3.org/2000/svg" viewBox="0 0 634.22 169.5"><defs><style>.d{fill:#f3cc23;}</style></defs><g id="a"/><g id="b"><g id="c"><g><g><path class="d" d="M104.78,122.1l-2.19,4.02c-.05,.1-.18,.14-.28,.08-.1-.05-.14-.18-.08-.28h0v-.03l2.46-3.85h0s.05-.03,.07-.02c.02,.01,.03,.04,.02,.07Z"/><path class="d" d="M100.06,129.94c-.93,1.21-1.84,2.44-2.79,3.64-.13,.17-.37,.19-.54,.06s-.19-.37-.06-.54h0v-.02c.96-1.18,1.94-2.34,2.9-3.51h.01c.11-.15,.3-.17,.43-.06,.13,.11,.15,.29,.05,.42Z"/><path class="d" d="M94.22,137.02c-1.09,1.07-2.16,2.17-3.27,3.22-.18,.17-.46,.16-.63-.01-.17-.17-.16-.45,0-.62l.02-.02c1.07-1.07,2.18-2.1,3.26-3.15l.02-.02c.17-.16,.43-.16,.59,0,.16,.17,.16,.43,0,.59Z"/><path class="d" d="M87.44,143.21l-3.74,2.67c-.15,.1-.35,.07-.45-.08-.1-.14-.07-.34,.07-.44h.02l3.6-2.79,.02-.02c.18-.14,.44-.11,.58,.07,.14,.18,.11,.44-.07,.58h-.01Z"/><path class="d" d="M79.78,148.25c-1.37,.69-2.71,1.41-4.07,2.11-.08,.04-.19,.01-.23-.07-.04-.08-.01-.19,.07-.23h.01c1.33-.74,2.67-1.45,3.99-2.21h.01c.11-.07,.25-.03,.31,.08,.06,.11,.02,.25-.09,.31h-.01Z"/><path class="d" d="M71.51,152.2l-4.31,1.55c-.1,.04-.22-.02-.25-.12-.04-.1,.02-.22,.12-.25h.02l4.31-1.48h.01c.08-.03,.18,.01,.21,.1,.03,.08-.02,.17-.1,.2Z"/><path class="d" d="M62.79,155l-4.5,.92c-.2,.04-.39-.09-.43-.29-.04-.2,.09-.39,.29-.43h.04l4.48-.74h.02c.15-.03,.29,.07,.32,.22,.02,.15-.07,.28-.22,.31Z"/><path class="d" d="M53.72,156.47l-4.6,.18c-.26,0-.48-.19-.49-.45s.19-.48,.45-.49h.05l4.53-.09h.03c.24,0,.43,.18,.44,.42,0,.23-.18,.43-.41,.44Z"/><path class="d" d="M44.52,156.46l-4.58-.55c-.29-.03-.5-.3-.46-.59,.03-.29,.3-.5,.59-.46h.04l4.49,.59h.04c.28,.04,.47,.29,.44,.57-.04,.27-.29,.47-.56,.44Z"/><path class="d" d="M35.43,154.99l-4.44-1.25c-.27-.08-.42-.35-.35-.62,.07-.27,.35-.42,.62-.35h.03l4.37,1.21h.04c.27,.08,.44,.37,.36,.64-.08,.27-.36,.44-.63,.36h0Z"/><path class="d" d="M26.67,152.15l-4.19-1.89c-.2-.09-.28-.32-.19-.51,.09-.19,.31-.28,.5-.2h.02l4.19,1.77h.03c.23,.11,.34,.37,.24,.6-.1,.23-.36,.34-.59,.24h-.01Z"/><path class="d" d="M18.44,148.07l-3.86-2.48c-.09-.06-.11-.17-.06-.26,.05-.08,.16-.11,.25-.06h.01l3.95,2.28h.02c.14,.09,.19,.28,.11,.42s-.27,.19-.41,.11h-.01Z"/></g><g><path class="d" d="M634.21,114.27l-2.75,3.65s-.07,.04-.1,.01c-.03-.02-.04-.07-.01-.1h0l2.78-3.62s.05-.03,.07-.01c.02,.02,.03,.05,.01,.07Z"/><path class="d" d="M628.59,121.47l-2.99,3.45c-.04,.05-.12,.06-.17,.01s-.06-.12-.01-.17h0l3.02-3.42s.1-.05,.14-.01c.04,.03,.04,.1,.01,.14Z"/><path class="d" d="M622.49,128.28l-3.23,3.24c-.07,.07-.17,.07-.24,0-.07-.07-.07-.17,0-.24h0l3.26-3.2h0c.06-.06,.15-.06,.21,0,.06,.06,.06,.15,0,.2Z"/><path class="d" d="M615.92,134.63l-3.46,3c-.09,.08-.23,.07-.3-.02-.08-.09-.07-.23,.02-.31h0l3.48-2.96h0c.08-.07,.2-.06,.27,.02,.07,.08,.06,.2-.02,.27Z"/><path class="d" d="M608.89,140.49l-3.69,2.71c-.11,.08-.27,.06-.35-.05-.08-.11-.06-.27,.05-.35h0l3.68-2.69h0c.11-.08,.26-.06,.33,.05,.08,.11,.06,.25-.05,.33Z"/><path class="d" d="M601.41,145.77l-3.89,2.41c-.12,.08-.29,.04-.37-.09-.08-.12-.04-.29,.09-.37h.01l3.88-2.39h0c.12-.08,.28-.04,.35,.08s.04,.28-.08,.35Z"/><path class="d" d="M593.53,150.43l-4.08,2.08c-.14,.07-.31,.02-.38-.12s-.02-.31,.12-.38h.01l4.07-2.05h.01c.14-.07,.3-.02,.37,.12,.07,.14,.01,.3-.12,.37Z"/><path class="d" d="M585.28,154.4l-4.25,1.71c-.16,.06-.33-.01-.39-.17-.06-.16,.01-.33,.17-.39h.01l4.23-1.69h.01c.15-.06,.32,0,.38,.16s-.01,.32-.16,.38Z"/><path class="d" d="M576.71,157.63l-4.39,1.33c-.17,.05-.35-.04-.4-.21-.05-.17,.04-.35,.21-.4h.02l4.37-1.3h.01c.17-.05,.34,.04,.39,.21,.05,.17-.04,.34-.21,.39Z"/><path class="d" d="M567.88,160.08l-4.49,.93c-.18,.04-.36-.08-.4-.26s.08-.36,.26-.4h.02l4.46-.9h.01c.18-.04,.35,.08,.39,.26s-.08,.35-.26,.39Z"/><path class="d" d="M558.87,161.73l-4.55,.53c-.2,.02-.38-.12-.4-.31-.02-.2,.12-.38,.31-.4h.02l4.53-.51h.02c.19-.02,.36,.11,.39,.31s-.12,.36-.31,.39Z"/><path class="d" d="M549.74,162.6l-4.58,.15c-.21,0-.38-.16-.39-.36,0-.21,.16-.38,.36-.39h.02l4.55-.13h.02c.2,0,.37,.15,.38,.36,0,.2-.15,.37-.36,.38Z"/><path class="d" d="M540.57,162.71l-4.58-.21c-.22-.01-.39-.2-.38-.41s.2-.39,.41-.38h.02l4.55,.23h.01c.21,.01,.38,.19,.37,.41-.01,.21-.19,.38-.4,.37Z"/><path class="d" d="M531.42,162.12l-4.55-.53c-.23-.03-.39-.23-.36-.46s.23-.39,.46-.36h.01l4.53,.55h.01c.22,.03,.38,.23,.35,.45-.03,.22-.23,.38-.45,.35Z"/><path class="d" d="M522.34,160.95l-4.52-.76c-.24-.04-.39-.26-.35-.5,.04-.24,.26-.39,.5-.35h.02l4.49,.78h.01c.23,.04,.38,.26,.34,.49-.04,.23-.26,.39-.49,.35Z"/><path class="d" d="M513.33,159.26l-4.46-1.08c-.24-.06-.39-.3-.33-.54s.3-.39,.54-.33h.02l4.42,1.09h.01c.24,.06,.38,.3,.32,.54-.06,.24-.3,.38-.53,.32Z"/><path class="d" d="M504.46,156.94l-4.37-1.39c-.23-.07-.35-.31-.28-.54,.07-.23,.31-.35,.54-.28h.01l4.35,1.36h.01c.23,.08,.36,.32,.29,.56-.07,.23-.32,.36-.55,.29h0Z"/><path class="d" d="M495.77,154.04l-4.27-1.66c-.21-.08-.32-.32-.24-.53,.08-.21,.32-.32,.53-.24h0l4.25,1.63h.01c.22,.09,.33,.33,.24,.55-.08,.22-.33,.33-.54,.24h0Z"/><path class="d" d="M487.28,150.6l-4.17-1.89c-.2-.09-.29-.32-.2-.52,.09-.2,.32-.29,.52-.2h0l4.16,1.87h0c.2,.1,.29,.33,.2,.54-.09,.2-.33,.29-.53,.2h0Z"/><path class="d" d="M478.98,146.72l-4.08-2.08c-.18-.09-.26-.32-.16-.5,.09-.18,.32-.26,.5-.16h0l4.08,2.06h0c.19,.1,.27,.33,.17,.52-.1,.19-.33,.27-.52,.17h0Z"/><path class="d" d="M470.86,142.51l-4.02-2.19c-.17-.09-.24-.31-.14-.48,.09-.17,.31-.24,.48-.14l4.02,2.17c.18,.09,.25,.32,.15,.49s-.32,.25-.49,.15h0Z"/><path class="d" d="M462.84,138.1l-3.96-2.29c-.16-.09-.22-.3-.12-.46,.09-.16,.3-.22,.46-.12h0l3.96,2.27h0c.17,.1,.22,.31,.13,.48-.1,.17-.31,.22-.47,.13h0Z"/><path class="d" d="M454.96,133.45l-3.89-2.4c-.15-.09-.2-.29-.1-.44,.09-.15,.29-.2,.44-.1l3.89,2.38c.16,.09,.21,.29,.11,.45-.09,.16-.3,.21-.45,.11h0Z"/><path class="d" d="M447.2,128.62l-3.87-2.42c-.14-.09-.19-.27-.1-.41,.09-.14,.27-.19,.41-.1l3.89,2.41c.15,.09,.19,.28,.1,.43-.09,.15-.28,.19-.43,.1h0Z"/><path class="d" d="M439.44,123.81l-3.94-2.3h0c-.13-.08-.18-.25-.1-.39,.08-.13,.25-.18,.38-.1l3.96,2.29c.14,.08,.19,.26,.11,.4s-.26,.19-.4,.11h0Z"/><path class="d" d="M431.49,119.35l-4.1-1.98h-.01c-.13-.07-.18-.22-.12-.35,.06-.13,.22-.18,.35-.12l4.13,1.98c.13,.06,.19,.23,.13,.36s-.23,.19-.36,.13h-.01Z"/><path class="d" d="M423.19,115.62l-4.3-1.49h-.01c-.12-.05-.19-.18-.15-.31,.04-.12,.18-.19,.3-.15l4.34,1.48c.13,.04,.2,.19,.16,.32-.04,.13-.19,.2-.32,.16h-.02Z"/><path class="d" d="M414.5,112.91l-4.46-.93h-.01c-.12-.03-.19-.14-.17-.26s.14-.19,.26-.17l4.49,.92c.12,.03,.2,.15,.18,.27-.03,.12-.15,.2-.27,.18h-.02Z"/><path class="d" d="M405.54,111.31c-1.51-.18-3.02-.29-4.54-.44h0c-.11-.01-.19-.11-.18-.22,.01-.11,.11-.19,.22-.18,1.52,.13,3.04,.24,4.56,.42,.11,.01,.2,.12,.18,.23-.01,.11-.12,.2-.23,.18h0Z"/><path class="d" d="M396.45,110.69l-4.56,.09h-.01c-.1,0-.18-.08-.18-.17s.08-.18,.17-.18l4.58-.11c.1,0,.19,.08,.19,.18,0,.1-.08,.19-.18,.19h-.01Z"/><path class="d" d="M387.35,111.15l-4.51,.68h-.01c-.09,.01-.17-.04-.18-.13s.05-.17,.13-.18l4.53-.7c.09-.01,.18,.05,.19,.14s-.05,.18-.14,.19h-.01Z"/><path class="d" d="M378.4,112.84l-4.35,1.36h-.01c-.08,.03-.17-.02-.2-.1-.03-.08,.02-.17,.11-.2h0l4.38-1.35c.08-.02,.17,.02,.19,.1,.02,.08-.02,.17-.1,.19h-.01Z"/><path class="d" d="M369.81,115.87l-4.12,1.94h0c-.09,.05-.19,0-.23-.08s0-.19,.08-.23h0l4.15-1.94c.08-.04,.18,0,.22,.08s0,.18-.08,.22h0Z"/><path class="d" d="M361.67,119.96l-3.95,2.28c-.09,.06-.21,.03-.26-.06-.06-.09-.03-.21,.06-.26h0l3.96-2.28c.09-.05,.2-.02,.25,.07,.05,.09,.02,.2-.07,.25Z"/><path class="d" d="M353.8,124.58l-3.93,2.33c-.1,.06-.23,.03-.29-.07s-.03-.23,.07-.29h0l3.94-2.31c.09-.06,.22-.03,.27,.07,.06,.1,.03,.22-.07,.28Z"/><path class="d" d="M345.89,129.16l-4.05,2.13c-.11,.06-.25,.02-.3-.09-.06-.11-.02-.25,.09-.3h0l4.05-2.11h0c.11-.06,.24-.02,.29,.09s.01,.24-.09,.29Z"/><path class="d" d="M337.7,133.25l-4.22,1.77c-.12,.05-.26,0-.31-.13-.05-.12,0-.26,.13-.31h.01l4.21-1.75h.01c.12-.05,.25,0,.3,.12,.05,.12,0,.25-.12,.3Z"/><path class="d" d="M329.17,136.55l-4.39,1.3c-.14,.04-.28-.04-.32-.17-.04-.14,.04-.28,.17-.32h.01l4.37-1.28h.01c.13-.04,.27,.03,.31,.17,.04,.13-.04,.27-.17,.31Z"/><path class="d" d="M320.33,138.95l-4.48,.92c-.15,.03-.29-.06-.32-.21-.03-.15,.06-.29,.21-.32h.01l4.47-.9h.01c.14-.03,.28,.06,.31,.21s-.06,.28-.21,.31Z"/><path class="d" d="M311.33,140.61l-4.55,.56c-.16,.02-.31-.1-.33-.26-.02-.16,.09-.31,.26-.33h.01l4.52-.54h.01c.16-.02,.3,.09,.31,.25,.02,.16-.09,.3-.25,.31Z"/><path class="d" d="M302.22,141.55l-4.58,.18c-.18,0-.32-.13-.33-.3s.13-.32,.3-.33h.02l4.55-.16h.01c.17,0,.31,.13,.32,.29,0,.17-.12,.31-.29,.32Z"/><path class="d" d="M293.06,141.72l-4.58-.22c-.19,0-.33-.17-.32-.36,0-.19,.17-.33,.36-.32h.02l4.55,.24h.01c.18,.01,.32,.16,.31,.35,0,.18-.16,.32-.34,.31Z"/><path class="d" d="M283.92,141.08c-1.52-.17-3.03-.42-4.54-.64-.2-.03-.34-.21-.31-.41,.03-.2,.21-.34,.41-.31h.02c1.5,.23,2.99,.49,4.5,.66,.19,.02,.33,.2,.31,.39s-.2,.33-.39,.31Z"/><path class="d" d="M274.88,139.55l-4.45-1.13c-.21-.05-.33-.26-.28-.47,.05-.21,.26-.33,.47-.28h.02l4.4,1.14h.02c.2,.06,.32,.26,.27,.46-.05,.2-.26,.32-.45,.27Z"/><path class="d" d="M266.06,137.07l-4.31-1.56c-.21-.08-.32-.31-.25-.52s.31-.32,.52-.25h.02l4.27,1.58h.02c.21,.08,.31,.31,.24,.52-.08,.21-.3,.31-.51,.24Z"/><path class="d" d="M257.5,133.79l-4.19-1.84c-.22-.1-.32-.35-.22-.57,.1-.22,.35-.32,.57-.22h.01l4.16,1.86h.01c.21,.1,.31,.35,.21,.56-.09,.21-.34,.31-.55,.21Z"/><path class="d" d="M249.17,130.01l-4.11-2c-.22-.11-.32-.38-.21-.6,.11-.22,.38-.32,.6-.21h0l4.1,2.01h0c.22,.11,.31,.38,.2,.6s-.37,.31-.59,.2Z"/><path class="d" d="M240.97,125.96l-4.07-2.07c-.22-.11-.31-.39-.2-.61s.39-.31,.61-.2h0l4.07,2.07c.22,.11,.31,.38,.2,.61-.11,.22-.39,.31-.61,.2Z"/><path class="d" d="M232.83,121.81l-4.07-2.09c-.22-.12-.31-.39-.2-.62,.12-.22,.39-.31,.62-.2h0l4.06,2.09c.22,.12,.31,.39,.2,.61-.11,.22-.39,.31-.61,.2Z"/><path class="d" d="M224.71,117.6l-4.03-2.17c-.22-.12-.31-.4-.19-.62,.12-.22,.4-.31,.62-.19h0l4.02,2.17h0c.22,.12,.31,.4,.19,.62-.12,.22-.4,.31-.62,.19Z"/><path class="d" d="M216.67,113.2l-3.99-2.24c-.22-.13-.3-.41-.18-.63s.41-.3,.63-.18h0l3.98,2.24c.22,.12,.3,.41,.18,.63-.12,.22-.41,.3-.63,.18Z"/><path class="d" d="M208.7,108.73l-4.01-2.17h-.01c-.23-.13-.31-.41-.19-.64,.12-.23,.41-.31,.63-.19h0l4.03,2.18c.23,.12,.31,.4,.19,.63-.12,.23-.4,.31-.63,.19h0Z"/><path class="d" d="M200.62,104.56l-4.19-1.71-.04-.02c-.24-.1-.36-.37-.26-.61,.1-.24,.37-.36,.61-.26h0l4.27,1.74c.24,.1,.35,.37,.26,.61-.1,.24-.37,.35-.61,.26h-.03Z"/><path class="d" d="M192.09,101.54l-4.44-.88h-.04c-.26-.06-.42-.31-.37-.56s.3-.42,.56-.37h0l4.52,.9c.26,.05,.42,.3,.37,.55-.05,.26-.3,.42-.55,.37h-.04Z"/><path class="d" d="M183.15,100.14l-4.53-.29h-.03c-.26-.02-.46-.25-.45-.51,.02-.26,.24-.46,.51-.44h0l4.58,.29c.26,.02,.46,.24,.44,.5s-.24,.46-.5,.44h-.03Z"/><path class="d" d="M174.08,99.85l-4.52,.31h-.03c-.26,.02-.49-.18-.51-.44s.18-.49,.45-.51h0l4.59-.31c.26-.02,.49,.18,.51,.44,.02,.26-.18,.49-.44,.51h-.03Z"/><path class="d" d="M165.08,100.8l-4.43,.97h-.04c-.26,.06-.52-.1-.57-.36-.06-.26,.11-.52,.37-.57h0l4.5-.98c.26-.06,.52,.11,.57,.37,.06,.26-.11,.52-.37,.57h-.03Z"/><path class="d" d="M156.31,103.07l-2.13,.78c-.71,.26-1.4,.57-2.1,.85h-.02c-.25,.11-.53-.01-.63-.26-.1-.25,.02-.53,.27-.63,.71-.29,1.42-.6,2.14-.86l2.16-.79c.25-.09,.53,.04,.62,.29,.09,.25-.04,.53-.29,.62h-.02Z"/><path class="d" d="M148.01,106.66l-3.91,2.29-.03,.02c-.23,.14-.53,.06-.67-.17-.14-.23-.06-.53,.18-.67h0l3.98-2.32c.23-.14,.53-.06,.67,.17,.14,.23,.06,.53-.18,.67l-.03,.02Z"/><path class="d" d="M140.36,111.52l-3.6,2.77h-.02c-.22,.18-.52,.14-.69-.08-.17-.22-.13-.52,.09-.69h0l3.64-2.8c.22-.17,.52-.12,.69,.09,.17,.21,.13,.52-.09,.69h-.02Z"/><path class="d" d="M133.25,117.2l-3.47,2.97c-.21,.18-.52,.16-.7-.05s-.16-.52,.05-.7h0l3.48-2.97c.21-.18,.52-.15,.7,.05,.18,.21,.15,.52-.05,.7h0Z"/><path class="d" d="M126.37,123.19l-3.31,3.13h-.01c-.2,.2-.52,.19-.71,0-.19-.2-.18-.52,.02-.71h0l3.34-3.15c.2-.19,.51-.18,.7,.02,.19,.2,.18,.52-.02,.7h-.01Z"/><path class="d" d="M119.84,129.55l-3.12,3.32h0c-.18,.2-.49,.21-.68,.03-.19-.18-.2-.48-.02-.68l3.12-3.36c.19-.2,.5-.21,.7-.03,.2,.19,.21,.5,.03,.7h-.01Z"/><path class="d" d="M113.67,136.26c-1.03,1.13-2.04,2.26-3.08,3.38-.17,.19-.46,.2-.65,.02-.18-.17-.2-.46-.03-.65h0c1.03-1.12,2.03-2.26,3.05-3.39h0c.17-.2,.47-.22,.66-.04,.19,.17,.21,.47,.03,.66h0Z"/><path class="d" d="M107.35,142.9l-3.38,3.1c-.18,.16-.45,.15-.61-.03-.16-.18-.15-.45,.02-.61h.01l3.33-3.11h.01c.18-.18,.46-.17,.63,.01,.17,.18,.16,.46-.02,.63h0Z"/><path class="d" d="M100.48,148.96l-3.61,2.83c-.18,.14-.44,.11-.58-.07-.14-.18-.11-.43,.07-.57h.01l3.57-2.83h.01c.18-.15,.45-.12,.59,.06,.14,.18,.11,.45-.07,.59h0Z"/><path class="d" d="M93.15,154.46l-3.83,2.52c-.18,.12-.42,.07-.53-.11-.12-.18-.07-.42,.11-.53h.01l3.79-2.53h.01c.18-.13,.43-.08,.55,.1,.12,.18,.07,.43-.11,.55h0Z"/><path class="d" d="M85.38,159.33l-4.04,2.16c-.18,.09-.4,.03-.49-.15-.09-.18-.03-.39,.15-.49h.02l4-2.17h.02c.18-.11,.41-.04,.51,.14,.1,.18,.03,.41-.15,.51h0Z"/><path class="d" d="M77.19,163.45l-4.25,1.72c-.17,.07-.37-.01-.44-.19-.07-.17,.01-.37,.18-.44h.02l4.21-1.74h.02c.18-.08,.38,0,.46,.18,.07,.18-.01,.38-.19,.46h0Z"/><path class="d" d="M68.59,166.64l-4.43,1.19c-.17,.04-.34-.05-.39-.22-.05-.17,.05-.34,.22-.38h.02l4.38-1.21h.02c.17-.05,.35,.05,.4,.22,.05,.17-.05,.35-.23,.4h0Z"/><path class="d" d="M59.66,168.72l-4.56,.56c-.16,.02-.3-.09-.32-.25-.02-.16,.09-.3,.25-.32h.02l4.51-.59h.02c.17-.02,.32,.09,.34,.26,.02,.17-.1,.32-.26,.34h0Z"/><path class="d" d="M50.52,169.5l-4.59-.14c-.15,0-.26-.13-.26-.27,0-.15,.13-.26,.27-.26h.02l4.55,.12h.02c.15,0,.28,.13,.27,.29,0,.15-.13,.28-.29,.27h0Z"/><path class="d" d="M41.37,168.86l-4.51-.84c-.13-.02-.22-.15-.19-.28,.02-.13,.15-.22,.28-.19h.02l4.48,.81h.02c.14,.03,.23,.16,.21,.3-.03,.14-.16,.23-.3,.21h0Z"/><path class="d" d="M32.43,166.85l-4.34-1.48c-.11-.04-.17-.16-.13-.27,.04-.11,.16-.17,.27-.13h.01l4.32,1.44h.02c.12,.05,.19,.18,.15,.3s-.17,.19-.29,.15h0Z"/><path class="d" d="M23.86,163.61l-4.11-2.03c-.08-.04-.12-.14-.08-.23,.04-.08,.14-.12,.22-.08h0l4.11,1.98h.01c.09,.05,.14,.17,.09,.26-.05,.1-.16,.14-.26,.09h0Z"/><path class="d" d="M15.77,159.32l-3.85-2.48c-.06-.04-.07-.11-.04-.17,.04-.06,.11-.07,.17-.04h0l3.86,2.44h0c.07,.05,.09,.14,.05,.21-.04,.07-.13,.09-.2,.05h0Z"/><path class="d" d="M8.21,154.16l-3.57-2.86s-.04-.08-.01-.11c.03-.03,.08-.04,.11-.01l3.59,2.82h0s.05,.1,.02,.15c-.03,.04-.1,.05-.14,.02h0Z"/><path class="d" d="M1.21,148.27l-1.2-1.13s-.02-.05,0-.07c.02-.02,.05-.02,.07,0l1.21,1.12s.03,.06,0,.08c-.02,.02-.06,.03-.08,0h0Z"/></g><g><path class="d" d="M362.21,81.03c1.29,3.27,2.84,6.33,4.94,9.07,2.14,2.77,3.79,6.05,4.46,9.51-1.43-3.2-3.11-6.16-5.26-8.92-2.12-2.82-3.6-6.17-4.13-9.66h0Z"/><path class="d" d="M343.93,83.73c1.47,2.34,2.71,4.82,3.75,7.39,1.34,3.22,2.41,6.95,1.06,10.37-.98,2.08-3.61,3.21-5.79,2.47-.64-.22-1.11-.49-1.73-.17-.95,.63-1.98,1.92-1.83,3.18,.08,.65,.42,1.28,.9,1.77-2.07-1.44-1.21-4.26,.62-5.5,.64-.46,1.6-.24,2.25-.02,1.76,.47,3.91-.47,4.68-2.13,1.17-3.18,.17-6.61-.89-9.71-.87-2.59-1.93-5.13-3.03-7.66h0Z"/><path class="d" d="M341.92,103.06c.74-1.35,1.81-2.53,2.98-3.49,1.1-.98,1.96-2.27,3.16-3.18-.62,1.46-1.32,2.83-2.5,3.93-1.08,.83-2.48,2.05-3.65,2.74h0Z"/><path class="d" d="M339.64,108.6c5.36,1.01,10.76-1.03,14.99-4.26,2.24-1.55,3.99-3.75,6.37-5.13,2.42-1.34,4.95-2.39,7.58-3.12-1.24,.57-2.48,1.12-3.67,1.77-3.94,1.68-6.41,4.7-9.68,7.28-4.33,3.29-10.26,5.27-15.59,3.45h0Z"/><path class="d" d="M371.61,99.61c-1.87,1.52-3.81,2.98-5.89,4.22-1.06,.6-2.34,1.43-3.67,1.04-.48-.14-.86-.49-1.04-.5-.16-.05-.56,.08-.86,.23-.57,.26-1.27,.98-1.72,1.42l-.8,.88c-1.58,1.91-3.99,3.01-6.21,3.96-2.69,1-9.8,3.29-11.68,.39-.43-.74-.47-1.6-.34-2.39-.03,.79,.12,1.62,.56,2.25,1.92,2.41,8.63-.16,11.09-1.12,2.14-.97,4.29-1.94,5.84-3.74l.83-.89c.99-.91,1.95-1.99,3.47-1.83,.97,.38,1.14,.8,2.08,.62,2.97-.93,5.62-2.96,8.32-4.53h0Z"/><path class="d" d="M344.34,84.44c5.94,3.82,11.16-3.88,17.25-3.11,.03,0-.02,0-.05,.05-.03,.04-.02,.08-.03,.05-.24-.76-1.08-1.1-1.96-1.33-2.31-.61-4.72-.45-7.04,.1-3.12,.77-6.01,2.34-8.93,3.81,4.67-3.21,10.35-6.35,16.21-4.86,1.01,.23,2.45,.82,2.7,2.14,.1,1.27-1.24,1.01-2.01,.99-5.35,.16-11.02,6.46-16.15,2.16h0Z"/><path class="d" d="M363.8,85.9c-2.29,2.19-5.69,2.66-8.66,1.67,1.46-.38,2.93-.33,4.39-.56,1.39-.24,2.75-.8,4.27-1.11h0Z"/><path class="d" d="M365.1,88.04c-.98,.28-1.6,.99-2.29,1.68-1.98,2.02-4.66,3.74-4.4,6.94-1.51-3.22,1.54-5.82,3.88-7.52,.76-.59,1.76-1.25,2.8-1.1h0Z"/><path class="d" d="M349.25,94.69c1.95,.51,3.47-.25,5.46-.43-1.25,1.51-4.18,2.3-5.46,.43h0Z"/><path class="d" d="M343.79,101.18c.9,.76,1.18,1.3,1.33,2.46-1.16-.16-1.82-1.4-1.33-2.46h0Z"/><path class="d" d="M344.64,100.45c1.29,.45,2,.91,2.87,1.97-1.32,.29-2.67-.62-2.87-1.97h0Z"/><path class="d" d="M345.46,99.05c1.29-.03,2.15,.35,3,1.31-1.22,.38-2.44-.16-3-1.31h0Z"/><path class="d" d="M346.93,97.96c.13-.84,1.19-.75,1.22,.09-.71,.47-.59,.44-1.22-.09h0Z"/></g><g><path class="d" d="M212.68,63.11c-1.13,3.32-1.94,6.66-2.12,10.11-.17,3.5-1.04,7.06-2.77,10.13,.99-3.36,1.62-6.71,1.77-10.2,.21-3.52,1.26-7.04,3.12-10.04h0Z"/><path class="d" d="M197,53.31c-.4,2.73-1.06,5.43-1.94,8.06-1.06,3.32-2.67,6.85-5.91,8.59-2.09,.95-4.83,.1-6.01-1.87-.35-.58-.53-1.09-1.21-1.25-2-.25-4.15,.83-3.92,3.17-.39-1.41,.46-3,1.87-3.45,1.05-.35,2.37-.69,3.26,.23,.28,.31,.45,.62,.64,.88,1.03,1.5,3.28,2.17,4.94,1.41,2.95-1.66,4.41-4.93,5.62-7.97,1.02-2.54,1.86-5.16,2.66-7.8h0Z"/><path class="d" d="M182.95,66.73c1.44-.55,3.02-.75,4.53-.73,1.47-.03,2.96-.46,4.47-.37-1.42,.71-2.85,1.3-4.45,1.37-1.36-.06-3.21-.04-4.55-.27h0Z"/><path class="d" d="M177.62,69.47c3.42,4.24,8.86,6.19,14.17,6.47,2.71,.27,5.47-.27,8.17,.22,2.71,.55,5.32,1.39,7.8,2.54-1.31-.37-2.62-.75-3.94-1.03-3.98-1.26-8-.58-12.09-.73-5.43-.3-11.23-2.63-14.11-7.47h0Z"/><path class="d" d="M207.79,83.35c-3.24-.16-6.54-.12-9.63-1.27-.41-.21-.78-.5-1.05-.92-.28-.42-.34-.93-.47-1.06-.1-.14-.48-.31-.8-.38-.6-.17-1.6-.07-2.23-.03l-1.18,.15c-2.44,.43-4.99-.29-7.29-1.01-2.7-.98-9.6-3.84-9.15-7.27,.15-.84,.68-1.53,1.29-2.04-.54,.59-.96,1.31-1.03,2.07-.13,3.05,6.7,5.49,9.17,6.34,2.26,.65,4.52,1.3,6.87,.94l1.21-.14c1.34-.05,2.78-.26,3.83,.85,.49,.92,.35,1.35,1.18,1.82,2.87,1.22,6.2,1.39,9.27,1.94h0Z"/><path class="d" d="M196.85,54.13c1.98,6.63,10.61,4.34,14.81,8.5,.17,.16,.28,.28,.35,.31,.03,.01-.01-.01-.07,0-.05,.01-.07,.05-.05,.02,.03-.05,.09-.23,.1-.36,.05-1.36-1.33-2.72-2.26-3.7-3.54-3.42-8.48-4.47-13.17-5.58,4.87,.53,10.07,1.45,13.81,4.89,1.27,1.35,3.31,3.19,2.35,5.29-.5,.77-1.34,.34-1.75-.17-4.06-3.87-12.95-2.35-14.12-9.21h0Z"/><path class="d" d="M210.75,67.99c-3.17,.19-6.05-1.66-7.67-4.34,1.36,.65,2.45,1.65,3.71,2.41,1.21,.71,2.61,1.17,3.97,1.92h0Z"/><path class="d" d="M210.36,70.46c-.93-.42-1.86-.28-2.83-.2-2.82,.26-5.98-.17-7.84,2.44,.94-3.43,4.94-3.43,7.83-3.21,.96,.05,2.15,.19,2.85,.98h0Z"/><path class="d" d="M193.97,65.25c1.16,1.65,2.8,2.06,4.44,3.21-1.93,.34-4.68-.96-4.44-3.21h0Z"/><path class="d" d="M185.59,66.52c.19,1.16,.06,1.75-.58,2.74-.78-.87-.48-2.25,.58-2.74h0Z"/><path class="d" d="M186.71,66.51c.69,1.18,.93,1.99,.91,3.36-1.19-.63-1.63-2.21-.91-3.36h0Z"/><path class="d" d="M188.26,66.12c1,.81,1.41,1.66,1.44,2.94-1.17-.51-1.75-1.71-1.44-2.94h0Z"/><path class="d" d="M190.09,66.24c.64-.56,1.4,.2,.87,.86-.85-.1-.73-.04-.87-.86h0Z"/></g><g><path class="d" d="M123.56,103.36c-.97,3.38-1.62,6.75-1.63,10.2,0,3.5-.7,7.11-2.28,10.25,.82-3.4,1.3-6.78,1.28-10.27,.04-3.53,.92-7.09,2.63-10.17h0Z"/><path class="d" d="M107.43,94.33c-.27,2.75-.79,5.47-1.55,8.14-.9,3.37-2.34,6.97-5.49,8.87-2.05,1.05-4.81,.33-6.09-1.57-.37-.56-.58-1.07-1.26-1.19-2.01-.16-4.11,1.03-3.76,3.35-.46-1.39,.31-3.02,1.7-3.54,1.03-.4,2.34-.8,3.26,.07,.3,.29,.48,.6,.68,.85,1.11,1.45,3.38,2.01,5.01,1.17,2.86-1.8,4.17-5.14,5.23-8.23,.89-2.59,1.6-5.24,2.28-7.92h0Z"/><path class="d" d="M94.04,108.41c1.41-.62,2.98-.9,4.49-.94,1.47-.1,2.94-.6,4.45-.59-1.38,.78-2.78,1.44-4.38,1.59-1.36,0-3.21,.11-4.56-.05h0Z"/><path class="d" d="M88.85,111.41c3.62,4.07,9.14,5.75,14.47,5.78,2.72,.14,5.45-.53,8.18-.18,2.73,.42,5.38,1.13,7.91,2.16-1.33-.31-2.65-.62-3.99-.84-4.08-1.07-7.99-.19-12.11-.15-5.44-.04-11.34-2.08-14.45-6.78h0Z"/><path class="d" d="M119.65,123.81c-3.25,0-6.54,.2-9.68-.8-.42-.19-.8-.47-1.09-.87-.3-.41-.38-.91-.52-1.03-.1-.14-.5-.28-.82-.34-.6-.14-1.6,0-2.23,.08l-1.17,.21c-2.42,.55-5-.05-7.33-.66-2.74-.85-9.77-3.37-9.49-6.82,.11-.85,.61-1.56,1.19-2.1-.51,.61-.9,1.36-.93,2.12,.05,3.08,6.93,5.14,9.47,5.89,2.28,.54,4.58,1.09,6.91,.61l1.2-.2c1.34-.12,2.76-.39,3.87,.67,.53,.9,.41,1.33,1.27,1.77,2.92,1.08,6.26,1.09,9.35,1.49h0Z"/><path class="d" d="M107.32,95.15c2.29,6.52,10.8,3.82,15.2,7.78,.18,.16,.3,.27,.36,.29,.03,.01-.01-.01-.07,0-.05,.02-.07,.05-.05,.02,.03-.05,.07-.23,.08-.37-.02-1.36-1.46-2.65-2.43-3.58-3.7-3.25-8.68-4.06-13.42-4.94,4.89,.29,10.13,.96,14.03,4.22,1.34,1.28,3.46,3.02,2.6,5.17-.47,.8-1.32,.41-1.76-.08-4.24-3.67-13.04-1.72-14.55-8.51h0Z"/><path class="d" d="M121.87,108.33c-3.15,.34-6.13-1.37-7.87-3.96,1.39,.59,2.53,1.53,3.82,2.23,1.25,.65,2.67,1.05,4.06,1.73h0Z"/><path class="d" d="M121.6,110.82c-.95-.37-1.88-.19-2.84-.06-2.8,.39-5.98,.12-7.72,2.81,.78-3.47,4.77-3.67,7.67-3.59,.97,0,2.16,.08,2.89,.84h0Z"/><path class="d" d="M104.98,106.4c1.24,1.59,2.9,1.92,4.59,2.99-1.91,.43-4.72-.73-4.59-2.99h0Z"/><path class="d" d="M96.67,108.07c.25,1.15,.15,1.75-.44,2.76-.82-.83-.58-2.22,.44-2.76h0Z"/><path class="d" d="M97.79,108.01c.75,1.14,1.03,1.94,1.07,3.31-1.22-.58-1.73-2.13-1.07-3.31h0Z"/><path class="d" d="M99.32,107.54c1.03,.77,1.49,1.59,1.58,2.87-1.2-.45-1.83-1.62-1.58-2.87h0Z"/><path class="d" d="M101.15,107.58c.61-.59,1.4,.13,.91,.82-.85-.06-.73,0-.91-.82h0Z"/></g><g><path class="d" d="M491.23,108.87c-.72,3.44-1.12,6.85-.88,10.29,.25,3.49-.18,7.14-1.52,10.39,.57-3.45,.8-6.85,.52-10.34-.22-3.52,.39-7.14,1.87-10.34h0Z"/><path class="d" d="M474.49,101.05c-.06,2.76-.39,5.52-.94,8.24-.65,3.43-1.82,7.13-4.83,9.24-1.96,1.2-4.78,.69-6.19-1.12-.41-.53-.66-1.02-1.35-1.09-2.02,0-4.02,1.32-3.5,3.62-.93-2.34,1.33-4.22,3.55-4.25,.78-.03,1.47,.68,1.89,1.22,1.75,1.96,5.02,1.68,6.46-.52,3.34-4.24,3.8-10.18,4.91-15.34h0Z"/><path class="d" d="M462.16,116.07c1.36-.72,2.91-1.11,4.41-1.27,1.45-.21,2.88-.81,4.39-.91-1.32,.88-2.67,1.64-4.25,1.9-1.36,.1-3.19,.35-4.55,.28h0Z"/><path class="d" d="M457.21,119.44c3.91,3.8,9.54,5.07,14.86,4.71,2.73-.06,5.4-.93,8.14-.77,2.75,.22,5.45,.73,8.05,1.58-1.35-.21-2.69-.43-4.04-.54-4.15-.76-7.98,.39-12.09,.74-5.43,.36-11.46-1.25-14.91-5.71h0Z"/><path class="d" d="M488.84,129.55c-3.24,.23-6.51,.68-9.72-.09-.43-.16-.83-.41-1.16-.79-.33-.38-.45-.88-.59-.99-.11-.13-.51-.25-.84-.28-.61-.1-1.6,.12-2.22,.24l-1.15,.29c-2.37,.72-4.99,.32-7.36-.12-2.8-.65-9.99-2.65-9.96-6.11,.05-.85,.49-1.6,1.03-2.18-.46,.65-.79,1.42-.77,2.18,.28,3.06,7.29,4.62,9.87,5.18,2.32,.37,4.65,.75,6.93,.1l1.18-.29c1.33-.22,2.72-.59,3.91,.38,.6,.86,.51,1.3,1.4,1.67,3,.86,6.32,.63,9.43,.8h0Z"/><path class="d" d="M475,102.31c2.78,5.96,10.65,2.81,15.19,6.22,.18,.13,.31,.23,.37,.25,.03,.01,0,0-.06,.01-.05,.02-.08,.06-.07,.04,.2-.71-.32-1.41-.91-2.03-1.56-1.67-3.59-2.78-5.74-3.55-2.91-1.01-6.05-1.29-9.16-1.67,5.44-.09,11.63,.36,15.62,4.54,.55,.58,1.18,1.3,1.24,2.34,.04,1.28-.98,1.69-1.88,.84-4.36-3.15-12.58-.72-14.61-7.01h0Z"/><path class="d" d="M489.91,113.95c-3.12,.57-6.21-.92-8.14-3.38,1.42,.49,2.63,1.34,3.97,1.95,1.29,.56,2.74,.85,4.17,1.43h0Z"/><path class="d" d="M489.83,116.45c-.97-.3-1.88-.05-2.84,.15-2.76,.6-5.95,.56-7.49,3.37,.52-3.52,4.49-4.01,7.38-4.14,.96-.07,2.16-.08,2.95,.62h0Z"/><path class="d" d="M472.93,113.27c1.35,1.5,3.03,1.7,4.8,2.65-1.87,.57-4.76-.38-4.8-2.65h0Z"/><path class="d" d="M464.76,115.54c.33,1.13,.27,1.73-.24,2.79-.88-.77-.75-2.17,.24-2.79h0Z"/><path class="d" d="M465.87,115.4c.83,1.08,1.17,1.86,1.31,3.22-1.26-.49-1.89-1.99-1.31-3.22h0Z"/><path class="d" d="M467.37,114.82c1.09,.69,1.6,1.47,1.78,2.75-1.23-.36-1.95-1.48-1.78-2.75h0Z"/><path class="d" d="M469.2,114.72c.57-.63,1.41,.03,.96,.75-.85,0-.73,.04-.96-.75h0Z"/></g><g><path class="d" d="M617.33,114.24l-3.87,2.42s-.09,.01-.11-.02c-.02-.04-.01-.09,.03-.11h0l3.95-2.29Z"/><path class="d" d="M609.51,118.96l-4,2.22c-.09,.05-.21,.02-.27-.08-.05-.09-.02-.21,.08-.27h0l4.05-2.11c.07-.04,.15-.01,.19,.05,.04,.07,.01,.15-.05,.19Z"/><path class="d" d="M601.47,123.31l-4.09,2.03c-.14,.07-.32,.01-.39-.13-.07-.14-.01-.32,.13-.39h0l4.12-1.97h0c.13-.06,.28,0,.34,.12,.06,.12,0,.27-.12,.34Z"/><path class="d" d="M593.24,127.29l-4.18,1.86c-.18,.08-.4,0-.48-.18s0-.4,.18-.48h.01l4.19-1.79h0c.17-.07,.36,0,.43,.17,.07,.16,0,.35-.17,.42Z"/><path class="d" d="M584.84,130.92l-4.27,1.66c-.22,.08-.47-.02-.55-.24-.09-.22,.02-.47,.24-.55h.01l4.27-1.61h0c.21-.08,.43,.02,.51,.23,.08,.2-.03,.43-.23,.51Z"/><path class="d" d="M576.26,134.12l-4.35,1.43c-.24,.08-.49-.05-.57-.29-.08-.24,.05-.49,.29-.57h.01l4.33-1.4h.01c.23-.08,.48,.05,.55,.28,.07,.23-.05,.47-.28,.55Z"/><path class="d" d="M567.52,136.85l-4.43,1.17c-.25,.07-.51-.08-.58-.34-.07-.25,.08-.51,.34-.58h.02l4.41-1.15h.01c.25-.07,.5,.08,.56,.33,.06,.25-.08,.5-.33,.56Z"/><path class="d" d="M558.62,139.05l-4.5,.87c-.27,.05-.53-.12-.58-.39-.05-.27,.12-.53,.39-.58h.02l4.47-.84h.02c.26-.05,.52,.12,.57,.38,.05,.26-.12,.52-.38,.57Z"/><path class="d" d="M549.58,140.6l-4.57,.47c-.26,.03-.5-.16-.53-.43-.03-.26,.16-.5,.42-.53h.02l4.52-.49h.02c.27-.03,.51,.16,.54,.43,.03,.27-.17,.51-.44,.54h0Z"/><path class="d" d="M540.43,141.33c-1.53,.04-3.06,.05-4.59,.03-.25,0-.45-.21-.45-.46,0-.25,.21-.45,.46-.45,1.52,0,3.03,0,4.55-.05,.26-.01,.48,.19,.49,.45,.01,.26-.19,.48-.45,.49h0Z"/><path class="d" d="M531.25,141.18l-4.57-.35c-.24-.02-.42-.23-.4-.46,.02-.24,.22-.41,.46-.4h.02l4.54,.33h.02c.24,.02,.43,.23,.41,.48s-.23,.43-.47,.41h0Z"/><path class="d" d="M522.12,140.3l-4.53-.71c-.21-.03-.35-.23-.32-.43,.03-.2,.22-.34,.43-.32h.01l4.51,.64h.01c.23,.03,.38,.24,.35,.47-.03,.23-.24,.38-.47,.35h0Z"/><path class="d" d="M513.09,138.72l-4.47-1.03c-.16-.04-.27-.2-.23-.37,.04-.16,.2-.27,.36-.23h.01l4.46,.95h.01c.19,.04,.3,.22,.26,.41-.04,.19-.22,.3-.41,.26h0Z"/><path class="d" d="M504.2,136.5l-2.19-.69-2.15-.78c-.12-.04-.18-.17-.13-.29,.04-.11,.17-.17,.28-.14h0l2.16,.73,2.18,.65h0c.14,.04,.22,.2,.18,.34-.04,.14-.19,.22-.34,.18h0Z"/><path class="d" d="M495.61,133.32l-4.17-1.9c-.05-.02-.08-.09-.05-.14,.02-.05,.09-.07,.14-.05l4.2,1.78h0c.08,.04,.12,.14,.09,.22-.04,.08-.13,.12-.22,.09h0Z"/><path class="d" d="M487.37,129.34l-1.79-1,1.82,.94s.02,.03,.02,.05-.03,.02-.05,.02h0Z"/></g><g><path class="d" d="M458.39,118l-4.27-1.65s-.07-.07-.06-.12c.02-.05,.07-.07,.12-.06h0l4.23,1.73s.04,.04,.03,.07c-.01,.02-.04,.04-.06,.03Z"/><path class="d" d="M449.86,114.71l-4.27-1.62c-.1-.04-.15-.15-.11-.24,.04-.1,.15-.15,.24-.11h0l4.24,1.71c.07,.03,.11,.11,.08,.19-.03,.07-.11,.11-.18,.08Z"/><path class="d" d="M441.3,111.5l-4.29-1.56c-.13-.05-.2-.19-.16-.32,.05-.13,.19-.2,.32-.16h0l4.28,1.6c.12,.05,.18,.18,.14,.3-.05,.12-.18,.18-.3,.14Z"/><path class="d" d="M432.7,108.44l-4.34-1.41h0c-.15-.05-.24-.22-.19-.37,.05-.15,.21-.24,.37-.19h0l4.34,1.44c.14,.05,.22,.2,.17,.35-.05,.14-.2,.22-.34,.17h0Z"/><path class="d" d="M423.99,105.74l-4.41-1.18h0c-.17-.05-.28-.23-.23-.4s.23-.28,.4-.23h0l4.41,1.22c.16,.05,.26,.22,.22,.38s-.21,.26-.38,.22h0Z"/><path class="d" d="M415.14,103.52l-4.47-.9h-.01c-.2-.04-.32-.23-.28-.43,.04-.2,.23-.32,.43-.28h0l4.48,.94c.19,.04,.31,.22,.27,.41-.04,.19-.22,.3-.41,.27h-.01Z"/><path class="d" d="M406.18,101.88l-4.52-.56h-.02c-.22-.03-.37-.23-.35-.45,.03-.22,.23-.37,.45-.35h0l4.54,.6c.21,.03,.36,.22,.33,.43-.03,.21-.22,.35-.42,.33h-.02Z"/><path class="d" d="M397.13,100.95l-4.55-.16h-.02c-.24,0-.43-.21-.42-.45s.21-.43,.45-.42h0l4.59,.2c.23,0,.41,.2,.4,.43,0,.23-.2,.41-.43,.4h-.02Z"/><path class="d" d="M388.04,100.86l-4.54,.29h-.02c-.24,.02-.44-.16-.45-.4-.01-.23,.16-.44,.4-.45l4.59-.33c.25-.02,.46,.17,.48,.41s-.17,.46-.41,.48h-.03Z"/><path class="d" d="M378.99,101.71l-4.46,.84h-.03c-.21,.04-.42-.09-.46-.31-.04-.21,.1-.42,.31-.46l4.51-.89c.22-.04,.44,.1,.48,.32,.04,.22-.1,.44-.32,.48h-.03Z"/><path class="d" d="M370.13,103.69l-4.3,1.46h-.02c-.19,.07-.39-.03-.45-.22-.06-.19,.04-.39,.22-.45l4.34-1.51c.2-.07,.41,.04,.48,.23,.07,.2-.04,.41-.23,.48h-.03Z"/><path class="d" d="M361.65,106.92l-4.07,2.04h-.01c-.16,.09-.35,.02-.43-.14-.08-.16-.02-.35,.14-.43l4.08-2.09c.17-.08,.37-.02,.46,.15,.09,.17,.02,.37-.15,.46h-.02Z"/><path class="d" d="M353.61,111.18l-3.94,2.32c-.13,.08-.31,.04-.39-.1-.08-.13-.04-.31,.1-.39l3.92-2.35c.14-.09,.33-.04,.41,.1s.04,.33-.1,.41h0Z"/><path class="d" d="M345.73,115.82l-3.99,2.24c-.12,.07-.26,.02-.33-.09-.07-.12-.02-.26,.09-.33h0l3.96-2.27h0c.13-.08,.29-.03,.36,.09,.07,.13,.03,.29-.1,.36h0Z"/><path class="d" d="M337.64,120.12l-4.2,1.82c-.1,.04-.22,0-.27-.11-.04-.1,0-.22,.1-.27h.01l4.17-1.85h.01c.11-.06,.24,0,.29,.11,.05,.11,0,.24-.11,.29h0Z"/><path class="d" d="M329.14,123.51l-4.39,1.31c-.09,.03-.18-.02-.2-.11-.03-.09,.02-.18,.11-.2h0l4.35-1.34h.01c.1-.03,.2,.02,.23,.12,.03,.1-.02,.2-.12,.23h0Z"/><path class="d" d="M320.3,125.88l-4.5,.84c-.09,.02-.18-.04-.2-.14-.02-.09,.04-.18,.14-.2h.01l4.48-.81h0c.08-.02,.17,.04,.18,.12,.02,.08-.04,.17-.12,.18Z"/><path class="d" d="M311.27,127.32l-4.56,.36c-.11,0-.21-.07-.22-.19,0-.11,.07-.21,.19-.22h.01l4.54-.33h0c.1,0,.19,.07,.2,.17,0,.1-.07,.19-.17,.2Z"/><path class="d" d="M302.14,127.82l-4.58-.08c-.13,0-.23-.11-.23-.24,0-.13,.11-.23,.24-.23h.01l4.55,.11h.01c.12,0,.22,.1,.21,.22,0,.12-.1,.21-.22,.21Z"/><path class="d" d="M292.99,127.45l-4.55-.49c-.15-.02-.25-.15-.24-.29,.02-.15,.15-.25,.29-.24h.01l4.53,.52h.01c.14,.02,.24,.14,.22,.28-.02,.14-.14,.23-.27,.22Z"/><path class="d" d="M283.91,126.29l-4.5-.85c-.17-.03-.28-.19-.24-.36,.03-.17,.19-.28,.36-.24h.01l4.47,.89h.01c.15,.03,.25,.18,.22,.34-.03,.15-.18,.25-.33,.22Z"/><path class="d" d="M274.94,124.43l-4.43-1.18c-.19-.05-.3-.24-.25-.43,.05-.19,.24-.3,.43-.25h.02l4.39,1.22h.01c.17,.05,.28,.23,.23,.41-.05,.17-.23,.28-.4,.23Z"/><path class="d" d="M266.13,121.93l-4.34-1.48c-.21-.07-.32-.29-.25-.5,.07-.21,.29-.32,.5-.25h.02l4.3,1.51h.01c.19,.07,.3,.28,.23,.48-.07,.19-.28,.3-.47,.23Z"/><path class="d" d="M257.51,118.84l-4.24-1.75c-.22-.09-.33-.35-.24-.57,.09-.22,.35-.33,.57-.24h.02l4.19,1.79h.01c.21,.1,.31,.34,.22,.55-.09,.21-.33,.31-.54,.22Z"/><path class="d" d="M249.09,115.21l-4.12-2.01c-.23-.11-.33-.39-.21-.62s.39-.33,.62-.21h.01l4.08,2.03h.01c.23,.12,.32,.39,.21,.62s-.38,.32-.61,.21Z"/><path class="d" d="M240.92,111.06l-3.99-2.25c-.23-.13-.32-.43-.18-.66,.13-.23,.43-.32,.66-.18h.01l3.96,2.26h.01c.23,.14,.31,.43,.18,.66-.13,.23-.42,.31-.65,.18Z"/><path class="d" d="M233,106.44c-1.29-.82-2.58-1.63-3.86-2.48-.23-.15-.3-.47-.15-.7,.15-.23,.47-.3,.7-.15h0c1.26,.85,2.55,1.66,3.82,2.48h0c.23,.15,.3,.46,.15,.69-.15,.23-.45,.3-.68,.15Z"/><path class="d" d="M225.35,101.42l-3.77-2.58c-.24-.16-.3-.49-.14-.73,.16-.24,.49-.3,.73-.14h0l3.76,2.6c.24,.16,.3,.48,.14,.72-.16,.24-.48,.3-.72,.14Z"/><path class="d" d="M217.81,96.25l-3.78-2.56h0c-.24-.17-.3-.49-.14-.73,.16-.24,.49-.3,.73-.14l3.79,2.56c.24,.16,.31,.49,.14,.73s-.49,.31-.73,.14h0Z"/><path class="d" d="M210.21,91.21l-3.88-2.37h-.02c-.24-.16-.32-.48-.17-.72,.15-.24,.47-.32,.71-.17l3.92,2.38c.25,.15,.32,.47,.17,.72-.15,.25-.47,.32-.72,.17h-.01Z"/><path class="d" d="M202.36,86.62l-4.06-2.03h-.02c-.25-.14-.35-.44-.23-.69s.43-.35,.68-.23l4.11,2.04c.25,.13,.36,.43,.23,.69s-.43,.36-.69,.23h-.02Z"/><path class="d" d="M194.13,82.8l-2.13-.78c-.71-.27-1.43-.5-2.15-.73h-.01c-.26-.09-.41-.37-.32-.63,.09-.26,.37-.41,.63-.32,.73,.24,1.47,.46,2.18,.74l2.16,.79c.26,.1,.4,.38,.3,.65-.1,.26-.38,.4-.65,.3h-.02Z"/><path class="d" d="M185.48,80.11l-4.45-.86h-.03c-.25-.05-.41-.3-.36-.54,.05-.25,.29-.41,.53-.37l4.53,.82c.26,.05,.44,.3,.39,.56-.05,.26-.3,.44-.56,.39h-.04Z"/><path class="d" d="M176.53,78.73l-4.53-.19h-.03c-.23-.01-.4-.2-.39-.43,0-.23,.2-.4,.43-.4l4.6,.15c.24,0,.43,.21,.42,.45,0,.24-.21,.43-.45,.42h-.04Z"/><path class="d" d="M167.46,78.66l-4.52,.45h-.03c-.2,.02-.38-.12-.4-.33-.02-.2,.13-.38,.32-.4l4.57-.5c.21-.02,.41,.13,.43,.34,.02,.21-.13,.41-.34,.43h-.03Z"/><path class="d" d="M158.46,79.88l-4.42,1.08h-.02c-.17,.05-.34-.06-.39-.23-.04-.17,.06-.34,.23-.39l4.45-1.14c.18-.05,.37,.06,.42,.25,.05,.18-.06,.37-.25,.42h-.03Z"/><path class="d" d="M149.71,82.35l-4.22,1.7h-.02c-.14,.06-.3,0-.36-.14-.06-.14,.01-.3,.15-.35l4.24-1.76c.15-.06,.33,0,.39,.16,.06,.15,0,.33-.16,.39h-.02Z"/><path class="d" d="M141.4,86.05l-3.93,2.3h-.01c-.11,.07-.25,.04-.31-.07-.06-.11-.03-.25,.08-.31l3.93-2.35c.12-.07,.27-.03,.34,.09s.03,.27-.09,.34h-.02Z"/><path class="d" d="M133.72,90.92l-1.8,1.4-1.75,1.46h0c-.06,.05-.15,.05-.2-.01-.05-.06-.04-.15,.02-.2l1.73-1.5,1.79-1.44c.08-.06,.2-.05,.26,.03,.06,.08,.05,.2-.03,.26h0Z"/><path class="d" d="M126.83,96.88l-3.16,3.29s-.05,.02-.08,0-.02-.06,0-.08l3.1-3.36s.1-.04,.14,0,.04,.1,0,.14h0Z"/></g><path class="d" d="M158.06,130.29c-2.01,2.07-4.09,4.04-6.18,6-.99,1-2.26,1.9-2.8,3.01-.21,.39-.29,1.13,.03,1.36,.24,.19,1.1,0,1.79-.08l4.28-.51c1.43-.14,2.78-.34,3.77-1.23,1.97-1.87,2.58-5.09,2.49-7.75,.08,.35,.16,.7,.2,1.07,.12,4.37-1.29,8.66-6.35,8.86l-4.27,.57c-.81,.04-1.6,.39-2.44-.09-.52-.35-.64-.91-.65-1.33,0-2.02,2.14-3.24,3.43-4.42,2.21-1.85,4.42-3.69,6.7-5.44h0Z"/><path class="d" d="M168.45,138.49c-1.42,1.6-2.25,3.91-1.88,5.98,.2,.93,1.19,1.29,2.25,1.44,2.16,.39,4.2,.43,5.61-1.54,3.51-3.24-1.2-5.06-4.05-5.61,1.13-.01,2.25,.21,3.34,.57,4.28,1.59,2.99,4.55,.17,6.92-1.47,1.18-3.58,.88-5.23,.59-.57-.11-1.17-.26-1.73-.6-2.6-1.71-.38-6.42,1.53-7.75h0Z"/><path class="d" d="M171.44,126.21c-.4,1.52-.51,3.16,.41,4.44,2.03,1.84,4.71,3.1,7.1,4.4,.55,.19,.46,.17,.56-.44,.31-2.42,.41-5.04,0-7.43-.52-2.48-3.48-3.5-5.8-3.45,2.5-.5,5.8,.54,6.54,3.24,.64,2.79,.59,5.54,.15,8.3-.17,.83-1.17,1.04-1.84,.66-2.33-1.19-4.46-2.56-6.48-4.22-1.66-1.28-1.46-3.85-.64-5.52h0Z"/><path class="d" d="M187.03,141.66c-2.12,.53-3.92,1.93-4.63,3.99-.29,.84-.55,2.01,.28,2.48,.53,.26,2.47,.38,3.09,.49l4.33,.58,4.32,.63c.71,.12,1.25,.1,1.66-.31,1.49-1.66-.05-3.82-1.56-5.02-1.08-.95-2.31-1.74-3.55-2.5,1.35,.56,2.63,1.27,3.85,2.12,1.2,.89,2.44,2.06,2.62,3.66,.19,1.25-.57,2.76-1.93,3-.85,.19-4.65-.52-5.56-.58l-4.32-.63c-.84-.18-2.55-.27-3.34-.68-1.26-.71-.96-2.45-.48-3.46,.84-2.12,3.01-3.56,5.21-3.76h0Z"/><path class="d" d="M403.68,124.29c-1.88-.71-3.63-2.19-5.66-2.2-2.02,.22-3.7,1.61-5.51,2.51-.46,.28-1.35,.7-1.75,1-.31,.24-.54,.65-.12,.81,2.57,.73,5.39,1.35,8.04,1.93l2.04,.43c.49,.06,1.49,.38,1.92,.25,.5-.14,.54-1,.68-1.65,.12-.69,.26-1.37,.41-2.05-.04,.7-.09,1.39-.15,2.09-.04,1.38-.25,2.46-1.93,2.12-.65-.07-2.44-.33-3.12-.42-2.79-.43-5.46-.99-8.26-1.76-.21-.08-.47-.22-.65-.49-.9-1.68,1.32-2.48,2.42-3.08,5.68-3.07,6.27-3.19,11.63,.51h0Z"/><path class="d" d="M386.55,134.63c-1.78-2.86-5.69-4.68-8.88-3.29-.95,.44-1.7,1.34-1.8,2.32-.04,.44-.01,.81,.41,1.02,1.55,.52,3.45,.88,5.06,1.37,2.1,.59,4.96,1.62,6.33-.72-.94,2.65-4.41,1.96-6.5,1.47-1.84-.42-3.5-.63-5.32-1.25-.73-.29-1.1-1.28-.96-2,1.36-5.96,10.1-3.53,11.67,1.08h0Z"/><path class="d" d="M396.75,138.27c-.27-1.67-.47-3.35-.7-5.02-.02-.14,.08-.26,.21-.28,.06,0,.11,0,.16,.03l2.83,1.41,.71,.35c.13,.08,.17,.04,.06,.06-.09,.05-.03,.02,0-.09l.52-1.5c.09-.28,.46-.38,.68-.18,.55,.4,2.13,1.81,2.66,2.08,.18,.05,.17,.03,.26-.19,.11-.27,.09-.84,.65-1.29,.27-.2,.63-.26,.9-.22,1.18,.07,1.65,1.39,2.33,2.06,1.84,1.11,5.39-3.67,6.03-5.25,.11-.32,.61-.24,.63,.09,.26,2.54,.05,5.14-.65,7.58,.37-2.49,.38-5.02,0-7.5l.63,.09c-1.11,2.51-2.98,5.35-5.77,6.14-.48,.08-1.07-.05-1.47-.38-.96-.78-1.08-2-2.05-1.81-.25,.19-.25,1.28-.86,1.54-.81,.46-1.59-.35-2.05-.74l-1.79-1.53,.68-.18-.59,1.47c-.07,.13-.11,.37-.46,.53-.37,.12-.59-.07-.69-.11l-.69-.39-2.75-1.58,.38-.25c.07,1.69,.16,3.37,.19,5.06h0Z"/><path class="d" d="M257.48,71.75c17.43-5.86,31.63-17.95,45.41-29.69,2.28-1.9,4.85-4.5,8.15-3.96,3.2,.65,4.19,4.5,6.92,5.8,5.83,2.79,11.6-1.81,15.32-6.09,4.06-4.53,8.61-8.67,13.58-12.21,2.54-1.74,5.02-3.65,8.06-4.48,3.13-.93,6.4,.5,8.82,2.42,4.76,3.84,9.36,7.77,14.04,11.64l13.94,11.73c1.17,.94,2.27,2.12,3.56,2.29,1.31,.18,2.48-.85,3.49-1.92,4.18-5.35,11.72-4.88,17.05-1.57,2,1.17,3.8,2.7,5.28,4.49,1.24,1.75,3.31,3.08,5.43,1.98,2.68-1.33,4.56-3.96,7.25-5.43,7.69-3.64,14.48,4.05,20.78,7.29,5.27,2.96,11.08,4.92,17.05,5.85,3.73,.59,7.53,.78,11.3,.52,2.28-.12,4.56-.58,6.84-.11,6.04,1.2,9.23,8.91,15.77,8.29-6.5,.73-9.83-6.92-15.82-8.05-2.23-.44-4.52,.06-6.77,.2-3.8,.32-7.63,.17-11.4-.37-6.03-.9-11.92-2.87-17.26-5.83-7.53-4.13-15.84-13.06-23.71-4.47-1.69,1.45-3.65,3.42-6.13,3.21-1.68-.11-2.94-1.4-3.92-2.6-1.44-1.72-3.16-3.17-5.1-4.29-3.74-2.2-8.61-3.31-12.65-1.32-2.05,.97-3.26,3.07-5.15,4.38-2.37,1.71-4.75-.27-6.5-1.84l-13.99-11.67c-4.65-3.89-9.28-7.87-13.95-11.68-2.29-1.8-5.13-3.13-8.06-2.3-2.83,.75-5.31,2.62-7.79,4.31-4.94,3.49-9.44,7.55-13.52,12.04-3.04,3.3-6.8,6.83-11.58,7.06-3.24,.34-6.24-1.45-7.96-4.1-.92-1.17-1.96-2.3-3.37-2.58-2.99-.5-5.49,2.01-7.65,3.79-13.81,11.73-28.29,23.62-45.79,29.25h0Z"/><path class="d" d="M571.01,79.42c-1.67-1.01-8.98-6.51-10.74-6.91-5.18-1.14-4.81,5.95-7.73,8.55-.66,.64-1.56,1.17-2.56,1.2-1.01,.07-1.92-.36-2.67-.79-2.54-1.47-6.24-3.93-8.82-5.23-3.69-1.84-5.55,1.74-5.92,4.99-.25,1.69-.48,3.49-1.43,5.1-.87,1.75-2.95,2.16-4.59,2.55-1.8,.46-1.6,2.88-3.19,3.7-1.54,.97-3.32,1.09-5.03,1.48-3.38,.64-6.75,1.31-10.13,1.92,3.34-.83,6.69-1.6,10.03-2.4,1.65-.43,3.44-.62,4.77-1.52,1.17-.68,1.15-2.18,2.06-3.15,.35-.37,.8-.59,1.23-.76,7.25-1.09,3.69-7.76,7.32-12.05,2.07-2.43,5.46-1,7.59,.52,1.39,.86,5.13,3.17,6.57,4.06,3.48,2.36,5.59-1.72,6.61-4.55,.89-2.44,3.14-5.23,6.06-4.17,.87,.27,1.63,.73,2.34,1.23,2.77,2.06,5.51,4.12,8.24,6.21h0Z"/><path class="d" d="M186.03,11.91c-13.87-3.22-10.98,2.86-21.95,4.04-7.62,.82-15.16,2.32-22.41,4.79-3.69,1.13-7.12,2.93-10.87,3.92-2.91,.8-16.15,.07-19.28,.17-1.09-.02-2.64,.13-2.74,1.44,.13,2.73,7.56,3.66,9.8,4.36,10.02,2.15,20.34,2.14,30.56,2.05,25.39-.29,51.3-.41,76.73-.43,1.08-.3-.64-1.65-1.14-1.89-7.54-5.03-17.06-5.01-25.58-7.26-1.31-.41-2.14-1.67-2.64-2.87-1.46-3.53-4.67-6.23-8.43-7.03-.07,0-.04-.11,.02-.1,3.82,.69,7.21,3.4,8.79,6.94,.53,1.13,1.19,2.2,2.43,2.59,1.05,.36,2.61,.57,3.71,.79,7.51,1.32,15.61,1.95,22.19,6.19,.93,.59,2.07,1.3,1.89,2.63-.25,.99-1.36,1.04-2.1,1.02-.56,0-2.28,.02-2.88,.02-24.31,.13-48.69,.1-72.99-.04-10.23-.07-20.55-.2-30.63-2.25-2.51-.53-4.99-1.18-7.45-1.97-1.22-.48-2.67-1.23-2.77-2.74,0-.76,.56-1.42,1.24-1.67,.28-.6,16.42-.24,17.35-.36,2.57,.02,4.95-.58,7.3-1.61,9.46-4,19.6-6.43,29.83-7.32,2.52-.27,5.06-.72,7.23-2.01,1.08-.64,2.13-1.45,3.38-1.89,3.58-1.31,8.19-.57,11.42,.52h0Z"/><path class="d" d="M115.15,.1c-1.85,.09-6.4,.31-8.18,.39-1.25,.08-2.75,.1-3.46,1.23-.42,.75-.35,1.69-.48,2.56-.05,1.11-.94,2.2-2.17,1.82-.52-.15-.93-.43-1.31-.69-2.1-1.5-5.04-1.92-7.39-.85-.77,.36-1.44,.9-1.92,1.58-.5,.65-.66,1.57-1.38,2.41-.72,.86-1.98,.81-2.94,.66-3.22-.41-7.48-2.92-9.64,.62-.5,.72-1.03,1.59-1.91,2.12-2.61,1.49-5.53-.03-8.21-.37-2.67-.37-5.43,.15-7.81,1.41-2.06,1.18-5.79,3.49-2.16,5.43,11.02,4.62,23.34,2.86,34.82,1.03,10.69-1.79,21.83-3.77,32.66-1.76,2.42,.48,5.66-.37,5.66-3.16-.05-1.11-1.86-2.58-1.02-3.96,1.92-2.66,.64-6.21-1.84-8.05-2.94-2.16-6.86-2.14-10.38-2.1-.07,0-.06-.1,0-.1,3.6-.17,7.56-.39,10.68,1.81,2.69,1.87,4.17,5.84,2.18,8.73-.55,1.39,1.04,2.04,1.17,3.6,.16,3.44-3.74,4.7-6.54,4.18-10.84-1.84-21.64,.07-32.4,1.74-11.56,1.75-24.07,3.07-35.12-1.67-3.84-2.12-.2-4.69,2.16-6.02,2.43-1.32,5.27-1.88,8.03-1.59,1.8,.2,3.55,.82,5.35,.85,1.9,.13,3.18-.93,4.06-2.56,2.2-3.95,7.02-1.61,10.4-1.07,2.54,.49,2.34-.92,3.51-2.67,2.39-3.23,7.43-3.08,10.41-.83,.6,.44,1.39,1,2.01,.43,.49-.44,.48-1.77,.6-2.4,.14-2.34,2.44-2.88,4.37-2.79,1.77-.01,6.37-.04,8.19-.05,.06,0,.07,.1,0,.1h0Z"/></g></g></g></svg>