<svg xmlns="http://www.w3.org/2000/svg" viewBox="0 0 215 46.61"><defs><style>.cls-1{fill:#ffcd00;}.cls-2{fill:#fff;}.cls-3{fill:#00538b;}</style></defs><g id="Capa_2" data-name="Capa 2"><g id="Footer"><g id="Capa_2-2" data-name="Capa 2"><g id="Capa_1-2" data-name="Capa 1-2"><circle class="cls-1" cx="23.31" cy="23.31" r="23.31"/><path class="cls-2" d="M65.26,15.19V17.9H60.35V32H57.29V17.9H52.38V15.19Z"/><path class="cls-2" d="M71.56,20.38h2.89V32H71.56V30.2A4,4,0,0,1,68,32.31c-3,0-4.63-2-4.63-5.4V20.38h2.89v6.41c0,1.87,1.12,2.84,2.42,2.84a2.8,2.8,0,0,0,3-2.63,2.54,2.54,0,0,0,0-.39Z"/><path class="cls-1" d="M89.34,26.16a5.79,5.79,0,0,1-5.73,6.13,4.71,4.71,0,0,1-3.88-1.86V32H76.89V15.16h2.89V21.9a4.62,4.62,0,0,1,3.87-1.84C86.7,20,89.34,22.43,89.34,26.16Zm-2.89,0a3.29,3.29,0,0,0-3.21-3.38h-.08a3.42,3.42,0,1,0,3.29,3.55Z"/><path class="cls-1" d="M99.56,20.38h2.89V32H99.56V30.2a4,4,0,0,1-3.62,2.12c-3,0-4.65-2-4.65-5.41V20.38h2.88v6.41c0,1.87,1.13,2.84,2.43,2.84a2.82,2.82,0,0,0,3-2.63c0-.13,0-.26,0-.39Z"/><path class="cls-1" d="M116.43,27.21h-9a3.06,3.06,0,0,0,3.31,2.49,3.85,3.85,0,0,0,3.14-1.5l1.94,1.48a6.22,6.22,0,0,1-5.23,2.63,5.91,5.91,0,0,1-6.11-5.71c0-.14,0-.28,0-.43a5.92,5.92,0,0,1,5.73-6.1,2.41,2.41,0,0,1,.38,0,5.75,5.75,0,0,1,5.93,5.56c0,.15,0,.3,0,.45C116.48,26.41,116.45,26.79,116.43,27.21Zm-2.81-2a2.86,2.86,0,0,0-3.05-2.55,3,3,0,0,0-3.16,2.55Z"/><path class="cls-1" d="M129.56,25.49V32h-2.89V25.69c0-1.87-1.12-2.87-2.41-2.87a2.84,2.84,0,0,0-3,2.67c0,.11,0,.23,0,.35V32H118.4V20.39h2.89v1.84a4,4,0,0,1,3.61-2.15C127.9,20.08,129.56,22.1,129.56,25.49Z"/><path class="cls-2" d="M131.35,26.19a6.11,6.11,0,0,1,6.33-6.11,6,6,0,0,1,4.74,2.24l-2,1.63a3.47,3.47,0,0,0-2.64-1.18,3.43,3.43,0,0,0-.3,6.86h.3a3.49,3.49,0,0,0,2.64-1.2l2,1.62a5.94,5.94,0,0,1-4.74,2.26A6.12,6.12,0,0,1,131.35,26.19Z"/><path class="cls-2" d="M152.75,20.38h2.89V32h-2.89V30.2a4.68,4.68,0,0,1-4,2.11c-3.13,0-5.61-2.52-5.61-6.14s2.39-6.1,5.68-6.1A4.63,4.63,0,0,1,152.75,22Zm-.05,5.81a3.33,3.33,0,1,0-6.65.16,3.44,3.44,0,0,0,3.28,3.28,3.39,3.39,0,0,0,3.37-3.42v0Z"/><path class="cls-2" d="M176.6,25.49V32h-2.87V25.64c0-1.87-1-2.84-2.31-2.84-1.68,0-2.62,1.15-2.62,3.47V32h-2.89V25.64c0-1.84-1-2.84-2.22-2.84s-2.69.8-2.69,3V32h-2.89V20.39H161v2.15a3.44,3.44,0,0,1,3.46-2.45,4,4,0,0,1,3.77,2.34,4.38,4.38,0,0,1,3.91-2.34C175.06,20.08,176.6,22.1,176.6,25.49Z"/><path class="cls-2" d="M178.63,16.28a1.83,1.83,0,0,1,1.87-1.78h0a1.77,1.77,0,1,1,0,3.54h0A1.85,1.85,0,0,1,178.63,16.28Z"/><rect class="cls-2" x="178.93" y="20.38" width="2.89" height="11.64"/><path class="cls-2" d="M195.47,25.49V32h-2.92V25.69c0-1.87-1.13-2.87-2.42-2.87a2.81,2.81,0,0,0-2.94,2.7,1.82,1.82,0,0,0,0,.33V32H184.3V20.4h2.89v1.83a4,4,0,0,1,3.61-2.15C193.79,20.08,195.47,22.1,195.47,25.49Z"/><path class="cls-2" d="M197.34,26.19a6.2,6.2,0,1,1,6.27,6.12h-.08a6,6,0,0,1-6.19-5.81Zm9.47,0a3.28,3.28,0,1,0,0,.41A2.8,2.8,0,0,0,206.81,26.19Z"/><path class="cls-2" d="M213.06,18.61l-.56-1h-.38v1h-.3V16.26h.76a.89.89,0,0,1,.45.09.72.72,0,0,1,.28.24.74.74,0,0,1,.09.36.71.71,0,0,1-.14.42.64.64,0,0,1-.42.25l.58,1Zm-.94-1.21h.46a.5.5,0,0,0,.37-.12.42.42,0,0,0,.13-.33.45.45,0,0,0-.12-.33.58.58,0,0,0-.38-.11h-.46Z"/><path class="cls-2" d="M212.58,19.87A2.42,2.42,0,1,1,215,17.45a2.41,2.41,0,0,1-2.42,2.42Zm0-4.52a2.13,2.13,0,1,0,2.13,2.13h0a2.13,2.13,0,0,0-2.11-2.15h0Z"/><path class="cls-3" d="M3.58,22.67a1.53,1.53,0,0,0,0,1.29L10,38a.82.82,0,0,0,1.07.4h0a.81.81,0,0,0,.4-1.08h0L7,27.43,21.9,42.86a.83.83,0,0,0,.59.25.79.79,0,0,0,.56-.23.8.8,0,0,0,0-1.14h0L8.67,26.79,33,40.63a.83.83,0,0,0,.4.11.82.82,0,0,0,.82-.81.83.83,0,0,0-.42-.72L10.12,25.74,39.69,33.6h.22a.83.83,0,0,0,.82-.81.81.81,0,0,0-.61-.79L10.4,24.07h32a.81.81,0,0,0,.75-.89.83.83,0,0,0-.75-.74h-32l29.73-7.92a.82.82,0,0,0-.43-1.58h0L10.12,20.87,33.84,7.39a.82.82,0,0,0,.32-1.1h0A.82.82,0,0,0,33,6L8.67,19.82,23,4.88a.82.82,0,0,0,0-1.16.81.81,0,0,0-1.15,0L7,19.2,11.5,9.32a.82.82,0,0,0-.35-1.1.83.83,0,0,0-1.1.36s0,0,0,.05Z"/></g></g></g></g></svg>